<?xml version="1.0" encoding="utf-8"?>
<!-- Generator: Adobe Illustrator 20.1.0, SVG Export Plug-In . SVG Version: 6.00 Build 0)  -->
<svg version="1.1" id="Layer_1" xmlns="http://www.w3.org/2000/svg" xmlns:xlink="http://www.w3.org/1999/xlink" x="0px" y="0px"
	 viewBox="0 0 198.1 49" style="enable-background:new 0 0 198.1 49;" xml:space="preserve">
<style type="text/css">
	.st0{enable-background:new    ;}
	.st1{fill:#454545;}
	.st2{fill:#0088EE;}
</style>
<g class="st0">
	<path class="st1" d="M2.6,13.4h5.6v11c0,2.7,0.7,3.6,2.4,3.6c1.4,0,2.2-0.6,3.3-2.1V13.4h5.6v18.8h-4.6l-0.4-2.6h-0.1
		c-1.6,1.9-3.3,3.1-5.9,3.1c-4.1,0-5.9-2.9-5.9-7.6V13.4z"/>
	<path class="st1" d="M25.2,26.6c1.7,1.3,3.3,2,4.9,2c1.7,0,2.4-0.6,2.4-1.6c0-1.3-1.9-1.8-3.8-2.6c-2.3-0.9-5-2.4-5-5.5
		c0-3.5,2.8-5.9,7.2-5.9c2.9,0,5,1.2,6.6,2.4L35,18.7c-1.4-1-2.7-1.6-4-1.6c-1.4,0-2.1,0.5-2.1,1.5c0,1.2,1.7,1.7,3.7,2.4
		c2.4,0.9,5.1,2.2,5.1,5.7c0,3.4-2.7,6.1-7.8,6.1c-2.5,0-5.3-1.1-7.2-2.6L25.2,26.6z"/>
	<path class="st1" d="M49,13c5.4,0,8,3.9,8,9c0,1-0.1,1.9-0.2,2.4H45.5c0.5,2.8,2.4,4.1,4.9,4.1c1.4,0,2.7-0.4,4.1-1.3l1.9,3.4
		c-1.9,1.3-4.4,2.1-6.7,2.1c-5.4,0-9.5-3.6-9.5-9.9C40.1,16.7,44.5,13,49,13z M52.2,20.9c0-2.2-0.9-3.7-3.2-3.7
		c-1.7,0-3.3,1.2-3.6,3.7H52.2z"/>
	<path class="st1" d="M60.9,13.4h4.6l0.4,3.3H66c1.4-2.5,3.4-3.8,5.4-3.8c1.1,0,1.7,0.2,2.2,0.4l-0.9,4.8c-0.7-0.2-1.3-0.3-2.1-0.3
		c-1.4,0-3.2,0.9-4.1,3.5v10.9h-5.6V13.4z"/>
	<path class="st1" d="M76.5,26.6c1.7,1.3,3.3,2,4.9,2c1.7,0,2.4-0.6,2.4-1.6c0-1.3-1.9-1.8-3.8-2.6c-2.3-0.9-5-2.4-5-5.5
		c0-3.5,2.8-5.9,7.2-5.9c2.9,0,5,1.2,6.6,2.4l-2.5,3.3c-1.4-1-2.7-1.6-4-1.6c-1.4,0-2.1,0.5-2.1,1.5c0,1.2,1.7,1.7,3.7,2.4
		c2.4,0.9,5.1,2.2,5.1,5.7c0,3.4-2.7,6.1-7.8,6.1c-2.5,0-5.3-1.1-7.2-2.6L76.5,26.6z"/>
</g>
<g class="st0">
	<path class="st2" d="M152.2,13.5c4.9,0,9.4,3.7,9.4,10.1s-4.5,10.1-9.4,10.1s-9.4-3.7-9.4-10.1S147.3,13.5,152.2,13.5z M152.2,29.1
		c2.3,0,3.5-2.1,3.5-5.5s-1.2-5.5-3.5-5.5c-2.4,0-3.5,2.1-3.5,5.5S149.8,29.1,152.2,29.1z"/>
	<path class="st2" d="M166.3,18.4h-2.7v-4.3l3-0.2l0.7-5.1h4.8v5.1h4.6v4.5h-4.6v7.8c0,2.2,1,3.1,2.5,3.1c0.6,0,1.3-0.2,1.8-0.4
		l0.9,4.2c-1,0.3-2.4,0.7-4.3,0.7c-4.8,0-6.7-3-6.7-7.5V18.4z"/>
	<path class="st2" d="M188.1,13.5c5.5,0,8.2,4,8.2,9.3c0,1-0.1,2-0.2,2.4h-11.6c0.5,2.9,2.5,4.2,5,4.2c1.4,0,2.8-0.4,4.2-1.3
		l1.9,3.5c-2,1.4-4.6,2.2-6.9,2.2c-5.5,0-9.8-3.7-9.8-10.1C179,17.3,183.4,13.5,188.1,13.5z M191.4,21.6c0-2.2-0.9-3.8-3.2-3.8
		c-1.8,0-3.4,1.2-3.7,3.8H191.4z"/>
</g>
<path class="st2" d="M134.2,6h-24.4c-2.8,0-5,2.2-5,5v24.4c0,2.8,2.2,5,5,5h24.4c2.8,0,5-2.2,5-5V11C139.2,8.3,136.9,6,134.2,6z
	 M120,32.8l-10.1-9.4l3.1-3.3l6.7,6.2l12.2-13.9l3.4,3L120,32.8z"/>
</svg>
